<?xml version="1.0" standalone="no"?>
<!DOCTYPE svg PUBLIC "-//W3C//DTD SVG 20010904//EN"
 "http://www.w3.org/TR/2001/REC-SVG-20010904/DTD/svg10.dtd">
<svg version="1.0" xmlns="http://www.w3.org/2000/svg"
 width="1280.000000pt" height="1280.000000pt" viewBox="0 0 1280.000000 1280.000000"
 preserveAspectRatio="xMidYMid meet">
<g transform="translate(0.000000,1280.000000) scale(0.100000,-0.100000)"
fill="#000000" stroke="none">
<path d="M0 10670 l0 -2130 2128 2 2127 3 3 2128 2 2127 -2130 0 -2130 0 0
-2130z m3658 -3 l2 -1527 -1527 2 -1528 3 -3 1514 c-1 1113 1 1517 9 1527 10
12 259 14 1528 12 l1516 -3 3 -1528z"/>
<path d="M1230 10665 l0 -905 905 0 905 0 0 905 0 905 -905 0 -905 0 0 -905z"/>
<path d="M6100 12500 l0 -300 300 0 300 0 0 300 0 300 -300 0 -300 0 0 -300z"/>
<path d="M7320 12195 l0 -605 300 0 300 0 0 605 0 605 -300 0 -300 0 0 -605z"/>
<path d="M8542 10673 l3 -2128 2128 -3 2127 -2 0 2130 0 2130 -2130 0 -2130 0
2 -2127z m3647 1513 c8 -10 10 -416 9 -1527 l-3 -1514 -1527 -3 -1528 -2 0
1523 c0 838 3 1527 7 1530 3 4 687 7 1518 7 1261 0 1514 -2 1524 -14z"/>
<path d="M9760 10665 l0 -905 905 0 905 0 0 905 0 905 -905 0 -905 0 0 -905z"/>
<path d="M4880 11275 l0 -295 300 0 300 0 0 295 0 295 -300 0 -300 0 0 -295z"/>
<path d="M6100 11275 l0 -295 300 0 300 0 0 295 0 295 -300 0 -300 0 0 -295z"/>
<path d="M7320 10660 l0 -300 -289 0 c-159 0 -296 -3 -305 -6 -14 -5 -16 -42
-16 -304 0 -262 -2 -299 -16 -304 -20 -8 -568 -8 -588 0 -14 5 -16 42 -16 304
0 262 -2 299 -16 304 -20 8 -532 8 -561 0 l-23 -6 0 -599 0 -599 303 -2 302
-3 0 -1525 0 -1525 -608 -3 -607 -2 2 -298 3 -297 303 -3 302 -2 -2 -308 -3
-307 -300 -5 -300 -5 -3 -1206 -2 -1207 22 -6 c30 -8 526 -8 556 0 l22 6 0
908 c0 819 2 908 16 914 23 9 577 7 591 -2 10 -6 13 -83 15 -307 l3 -300 295
0 295 0 3 300 c2 224 5 301 15 307 6 4 144 8 305 8 l292 0 0 605 0 605 303 2
302 3 0 295 0 295 -300 5 -300 5 -5 605 -5 605 -303 3 -302 2 2 918 3 917 302
3 303 2 2 303 3 302 300 5 300 5 3 598 2 597 -300 0 -300 0 0 -300z m-615
-5480 l0 -305 -305 0 -305 0 -3 295 c-1 162 0 301 3 308 3 10 69 12 307 10
l303 -3 0 -305z"/>
<path d="M4887 9133 c-4 -3 -7 -278 -7 -610 l0 -603 -1214 0 -1214 0 -6 -22
c-3 -13 -6 -150 -6 -305 l0 -283 -300 0 -300 0 0 -292 c0 -161 -4 -299 -8
-306 -7 -9 -76 -12 -313 -10 l-304 3 0 305 0 305 303 3 302 2 0 300 0 300
-910 0 -910 0 0 -300 0 -300 307 -2 308 -3 0 -305 0 -305 -308 -3 -307 -2 0
-605 0 -605 300 0 300 0 2 303 3 302 304 3 c237 2 306 -1 313 -10 4 -7 8 -282
8 -610 l0 -598 295 0 295 0 2 608 3 607 302 3 303 2 2 303 3 302 302 3 303 2
2 303 3 302 915 0 915 0 3 -303 2 -302 298 2 297 3 0 1210 0 1210 -291 3
c-160 1 -293 -1 -297 -5z"/>
<path d="M7325 9128 c-3 -8 -4 -141 -3 -298 l3 -285 295 0 295 0 0 295 0 295
-293 3 c-230 2 -294 0 -297 -10z"/>
<path d="M7325 7907 c-3 -7 -4 -140 -3 -297 l3 -285 605 -5 605 -5 5 -605 5
-605 300 -5 300 -5 5 -300 5 -300 293 -3 292 -2 0 292 c0 161 4 299 8 306 7 9
76 12 313 10 l304 -3 3 -302 2 -303 295 0 295 0 0 605 0 605 -604 0 c-541 0
-604 2 -610 16 -3 9 -6 146 -6 305 l0 289 -300 0 -300 0 -2 303 -3 302 -903 3
c-722 2 -904 0 -907 -11z"/>
<path d="M10980 7315 l0 -605 303 -2 302 -3 3 -302 2 -303 303 -2 302 -3 0
-305 0 -305 -302 -3 -303 -2 -2 -608 -3 -607 -303 -3 -302 -2 2 -298 3 -297
300 -5 300 -5 3 -907 2 -908 295 0 295 0 2 908 3 907 308 3 307 2 0 300 0 300
-307 2 -308 3 0 305 0 305 308 3 307 2 0 1215 0 1215 -612 2 -613 3 -3 303 -2
302 -295 0 -295 0 0 -605z"/>
<path d="M3665 6687 c-3 -7 -4 -140 -3 -297 l3 -285 603 -3 602 -2 0 300 0
300 -600 0 c-475 0 -602 -3 -605 -13z"/>
<path d="M2446 6074 c-8 -20 -8 -1142 0 -1172 l6 -22 292 2 291 3 3 603 2 602
-294 0 c-259 0 -295 -2 -300 -16z"/>
<path d="M3665 5468 c-3 -8 -4 -141 -3 -298 l3 -285 295 0 295 0 0 295 0 295
-293 3 c-230 2 -294 0 -297 -10z"/>
<path d="M9758 5178 l-3 -303 -912 -3 -913 -2 -2 -303 -3 -302 -300 -5 -300
-5 0 -295 0 -295 905 0 905 0 3 300 c2 224 5 301 15 307 16 10 578 10 595 0 9
-7 12 -76 10 -313 l-3 -304 -302 -3 -303 -2 0 -295 0 -295 293 0 c160 0 298
-4 305 -8 10 -7 12 -137 10 -618 l-3 -609 -302 -3 -303 -2 0 -295 0 -295 289
0 c159 0 296 -3 305 -6 14 -5 16 -42 16 -305 l0 -299 295 0 c162 0 296 1 297
3 2 1 5 823 8 1827 l5 1825 298 3 297 2 0 295 0 295 -297 2 -298 3 -6 300 c-3
165 -6 301 -7 303 -1 1 -135 2 -297 2 l-295 0 -2 -302z"/>
<path d="M0 2130 l0 -2130 2130 0 2130 0 -2 2128 -3 2127 -2127 3 -2128 2 0
-2130z m3658 3 l-3 -1528 -1514 -3 c-1111 -1 -1517 1 -1527 9 -12 10 -14 263
-14 1524 0 831 3 1515 7 1518 3 4 692 7 1530 7 l1523 0 -2 -1527z"/>
<path d="M1230 2135 l0 -905 905 0 905 0 0 905 0 905 -905 0 -905 0 0 -905z"/>
<path d="M6710 3355 l0 -295 300 0 300 0 0 295 0 295 -300 0 -300 0 0 -295z"/>
<path d="M6100 2746 l0 -294 23 -6 c29 -8 525 -8 555 0 l22 6 0 294 0 294
-300 0 -300 0 0 -294z"/>
<path d="M5490 2135 l0 -295 300 0 300 0 0 295 0 295 -300 0 -300 0 0 -295z"/>
<path d="M7318 2128 l-3 -303 -607 -3 -608 -2 0 -295 0 -295 910 0 910 0 0
600 0 600 -300 0 -300 0 -2 -302z"/>
<path d="M8540 2135 l0 -295 300 0 300 0 -2 293 -3 292 -297 3 -298 2 0 -295z"/>
<path d="M4880 910 l0 -910 300 0 300 0 0 910 0 910 -300 0 -300 0 0 -910z"/>
<path d="M12200 1525 l0 -295 300 0 300 0 0 295 0 295 -300 0 -300 0 0 -295z"/>
<path d="M11590 605 l0 -605 605 0 605 0 0 300 0 300 -298 0 c-218 0 -301 3
-310 12 -9 9 -12 90 -12 305 l0 293 -295 0 -295 0 0 -605z"/>
<path d="M6100 300 l0 -300 1210 0 1210 0 0 300 0 300 -1210 0 -1210 0 0 -300z"/>
<path d="M9150 300 l0 -300 295 0 295 0 0 300 0 300 -295 0 -295 0 0 -300z"/>
</g>
</svg>
